PathFileType	4	(X/Y/Z)	 New Session 109.trc
DataRate	CameraRate	NumFrames	NumMarkers	Units	OrigDataRate	OrigDataStartFrame	OrigNumFrames
100	100	9	14	m	100	999	1141
Frame#	Time	C7			T8			IJ			PX			AA			AC			AI			TS			SC			GH			LE			ME			US			RS			
		X1	Y1	Z1	X2	Y2	Z2	X3	Y3	Z3	X4	Y4	Z4	X5	Y5	Z5	X6	Y6	Z6	X7	Y7	Z7	X8	Y8	Z8	X9	Y9	Z9	X10	Y10	Z10	X11	Y11	Z11	X12	Y12	Z12	X13	Y13	Z13	X14	Y14	Z14	
999	9.9900	0.034368	0.107380	0.139157	0.026017	-0.101667	0.217865	0.008596	-0.002466	-0.021346	0.007346	-0.148287	-0.081726	0.227632	0.010733	0.122712	0.179503	0.047453	0.046370	0.112165	0.031011	0.177255	0.107705	-0.085981	0.213264	0.033886	0.005686	-0.017797	0.239218	0.018282	0.081519	0.300923	-0.273491	0.087120	0.219589	-0.300875	0.131965	0.324336	-0.550907	0.068540	0.312389	-0.543750	-0.008888	
1000	10.0000	0.034290	0.107372	0.139190	0.025911	-0.101684	0.217903	0.008602	-0.002429	-0.021338	0.007475	-0.148253	-0.081750	0.227471	0.010846	0.123059	0.179541	0.047522	0.046582	0.112036	0.031027	0.177373	0.107613	-0.085979	0.213464	0.033940	0.005711	-0.017757	0.239168	0.018383	0.081920	0.300731	-0.273499	0.087909	0.219213	-0.300714	0.132652	0.324244	-0.550875	0.070049	0.312187	-0.543984	-0.007434	
1001	10.0100	0.034199	0.107365	0.139222	0.025800	-0.101693	0.217951	0.008619	-0.002409	-0.021327	0.007586	-0.148226	-0.081780	0.227287	0.010943	0.123425	0.179576	0.047593	0.046813	0.111907	0.031037	0.177491	0.107519	-0.085949	0.213766	0.033984	0.005719	-0.017716	0.239109	0.018485	0.082348	0.300586	-0.273498	0.088664	0.218853	-0.300569	0.133290	0.324216	-0.550813	0.071365	0.312102	-0.544129	-0.006168	
1002	10.0200	0.034098	0.107363	0.139266	0.025675	-0.101695	0.218006	0.008656	-0.002418	-0.021308	0.007683	-0.148207	-0.081809	0.227105	0.011018	0.123796	0.179610	0.047656	0.047052	0.111762	0.031042	0.177622	0.107401	-0.085912	0.214100	0.034024	0.005718	-0.017674	0.239062	0.018598	0.082785	0.300486	-0.273472	0.089408	0.218530	-0.300454	0.133861	0.324212	-0.550740	0.072504	0.312196	-0.544201	-0.005071	
1003	10.0300	0.033985	0.107372	0.139336	0.025531	-0.101692	0.218064	0.008714	-0.002444	-0.021277	0.007767	-0.148191	-0.081829	0.226950	0.011080	0.124154	0.179636	0.047716	0.047288	0.111590	0.031043	0.177777	0.107240	-0.085885	0.214399	0.034062	0.005710	-0.017625	0.239039	0.018736	0.083235	0.300438	-0.273411	0.090145	0.218266	-0.300379	0.134341	0.324212	-0.550669	0.073479	0.312466	-0.544221	-0.004122	
1004	10.0400	0.033862	0.107397	0.139434	0.025371	-0.101688	0.218124	0.008787	-0.002464	-0.021231	0.007843	-0.148175	-0.081837	0.226838	0.011150	0.124483	0.179653	0.047777	0.047521	0.111391	0.031053	0.177963	0.107028	-0.085876	0.214630	0.034097	0.005697	-0.017565	0.239028	0.018887	0.083692	0.300437	-0.273319	0.090842	0.218070	-0.300335	0.134727	0.324228	-0.550606	0.074289	0.312829	-0.544198	-0.003333	
1005	10.0500	0.033733	0.107433	0.139544	0.025204	-0.101687	0.218186	0.008850	-0.002470	-0.021171	0.007916	-0.148158	-0.081829	0.226756	0.011238	0.124783	0.179665	0.047844	0.047758	0.111177	0.031085	0.178176	0.106781	-0.085878	0.214816	0.034119	0.005687	-0.017503	0.239003	0.019019	0.084117	0.300456	-0.273210	0.091452	0.217942	-0.300303	0.135039	0.324287	-0.550541	0.074927	0.313202	-0.544129	-0.002727	
1006	10.0600	0.033596	0.107468	0.139652	0.025039	-0.101691	0.218252	0.008879	-0.002467	-0.021107	0.007988	-0.148139	-0.081807	0.226678	0.011339	0.125071	0.179685	0.047914	0.048005	0.110964	0.031143	0.178396	0.106517	-0.085887	0.214983	0.034129	0.005683	-0.017442	0.238969	0.019118	0.084473	0.300471	-0.273096	0.091944	0.217877	-0.300265	0.135294	0.324412	-0.550453	0.075407	0.313575	-0.544008	-0.002289	
1007	10.0700	0.033453	0.107501	0.139760	0.024877	-0.101698	0.218322	0.008876	-0.002456	-0.021045	0.008064	-0.148122	-0.081771	0.226587	0.011448	0.125376	0.179718	0.047988	0.048274	0.110761	0.031213	0.178609	0.106250	-0.085897	0.215142	0.034137	0.005693	-0.017381	0.238941	0.019208	0.084764	0.300467	-0.272981	0.092320	0.217864	-0.300213	0.135503	0.324605	-0.550335	0.075754	0.313974	-0.543839	-0.001977	
